<svg xmlns="http://www.w3.org/2000/svg" viewBox="0 0 90 90"><defs><style>.cls-1{fill:#7ba60d;}.cls-2{fill:#9cc925;}</style></defs><title>leaf</title><g id="leaf"><path class="cls-1" d="M38.25,64.69c-1.73.59-7.67,10.16-6.74,20.31h3.63S33.78,73.19,41,65.41Z"/><path class="cls-1" d="M62.1,5.27C55.23,9.66,48.26,13.6,41,17.44c-6.53,3.46-13,7.46-17.63,13.34-8.6,10.8-8.12,30.21,3.81,38.39a22,22,0,0,0,6.59,4C40.14,49.09,48.31,24,63.93,5.25A1.76,1.76,0,0,0,62.1,5.27Z"/><path class="cls-2" d="M66.71,18.14A38,38,0,0,1,64.4,9.9a6.15,6.15,0,0,1,.2-2.51,1.74,1.74,0,0,0-.67-2.15C48.31,24,40.14,49.09,33.78,73.19A19.82,19.82,0,0,0,44.5,74.62c8.91-1.47,17.74-6.38,22.75-13.8C72.53,53,73.34,43,71.81,33.88,70.9,28.46,68.54,23.28,66.71,18.14Z"/></g></svg>